<svg width="1200" height="1500" viewBox="0 0 1200 1500" fill="none" xmlns="http://www.w3.org/2000/svg">
  <rect width="1200" height="1500" fill="#F5EFE6"/>
  <rect x="86" y="86" width="1028" height="1328" rx="52" fill="#FDFAF6" stroke="#2C2416" stroke-opacity="0.12" stroke-width="2"/>
  <path d="M250 372C368 302 520 278 690 326C838 367 934 470 972 632C1006 777 948 904 842 1012C742 1113 614 1188 460 1240" stroke="#8B9E8A" stroke-width="22" stroke-linecap="round" stroke-dasharray="2 34"/>
  <path d="M302 378C420 336 538 330 655 360C793 396 882 483 922 618C958 739 914 848 820 948C733 1042 616 1110 470 1154" stroke="#C9876A" stroke-width="8" stroke-linecap="round"/>
  <circle cx="320" cy="378" r="28" fill="#C9876A"/>
  <circle cx="930" cy="622" r="28" fill="#D4A853"/>
  <circle cx="476" cy="1158" r="28" fill="#8B9E8A"/>
  <path d="M270 460C414 454 542 468 656 502" stroke="#2C2416" stroke-opacity="0.15" stroke-width="4" stroke-linecap="round"/>
  <path d="M664 760C768 724 844 718 892 742" stroke="#2C2416" stroke-opacity="0.15" stroke-width="4" stroke-linecap="round"/>
  <text x="320" y="332" text-anchor="middle" fill="#2C2416" font-family="Georgia, serif" font-size="54">St. Tropez</text>
  <text x="930" y="578" text-anchor="middle" fill="#2C2416" font-family="Georgia, serif" font-size="54">Antibes</text>
  <text x="482" y="1280" text-anchor="middle" fill="#2C2416" font-family="Georgia, serif" font-size="54">Nice</text>
  <text x="600" y="1410" text-anchor="middle" fill="#C9876A" font-family="Georgia, serif" font-size="70" font-style="italic">Cote d'Azur</text>
</svg>
